<?xml version="1.0" encoding="UTF-8"?> <svg xmlns="http://www.w3.org/2000/svg" width="61" height="46" viewBox="0 0 61 46" fill="none"> <path d="M10.345 0.199951H13.633V17H10.345V10.04H4.10497V17H0.792969V0.199951H4.10497V6.87195H10.345V0.199951Z" fill="#1A1E25"></path> <path d="M28.3459 0.199951V3.36795H23.8099V17H20.4979V3.36795H15.9859V0.199951H28.3459Z" fill="#1A1E25"></path> <path d="M47.1148 0.199951V17H43.8268V6.10395L39.0988 13.904H38.7148L33.9868 6.12795V17H30.6748V0.199951H34.0828L38.9068 8.14395L43.7068 0.199951H47.1148Z" fill="#1A1E25"></path> <path d="M54.0372 13.832H60.4452V17H50.7252V0.199951H54.0372V13.832Z" fill="#1A1E25"></path> <path d="M16.7002 45.336C14.1722 45.336 12.0842 44.4959 10.4362 42.8159C8.78819 41.1359 7.96419 39.064 7.96419 36.6C7.96419 34.12 8.78819 32.048 10.4362 30.384C12.0842 28.704 14.1722 27.864 16.7002 27.864C18.2202 27.864 19.6202 28.224 20.9002 28.944C22.1962 29.648 23.2042 30.608 23.9242 31.8239L21.0682 33.4799C20.6522 32.728 20.0602 32.144 19.2922 31.728C18.5242 31.296 17.6602 31.08 16.7002 31.08C15.0682 31.08 13.7482 31.592 12.7402 32.616C11.7482 33.64 11.2522 34.968 11.2522 36.6C11.2522 38.216 11.7482 39.5359 12.7402 40.56C13.7482 41.584 15.0682 42.096 16.7002 42.096C17.6602 42.096 18.5242 41.888 19.2922 41.472C20.0762 41.04 20.6682 40.456 21.0682 39.72L23.9242 41.376C23.2042 42.592 22.2042 43.56 20.9242 44.28C19.6442 44.984 18.2362 45.336 16.7002 45.336Z" fill="#1A1E25"></path> <path d="M32.1748 45.336C30.5108 45.336 29.1108 44.9679 27.9748 44.2319C26.8388 43.4799 26.0387 42.464 25.5747 41.184L28.4067 39.528C29.0627 41.24 30.3508 42.096 32.2708 42.096C33.1988 42.096 33.8787 41.9279 34.3107 41.5919C34.7427 41.256 34.9588 40.832 34.9588 40.32C34.9588 39.728 34.6948 39.2719 34.1668 38.952C33.6388 38.616 32.6948 38.2559 31.3348 37.8719C30.5828 37.6479 29.9427 37.424 29.4147 37.2C28.9027 36.976 28.3827 36.68 27.8547 36.312C27.3428 35.928 26.9507 35.4479 26.6787 34.8719C26.4067 34.2959 26.2708 33.624 26.2708 32.8559C26.2708 31.3359 26.8067 30.128 27.8787 29.232C28.9667 28.32 30.2707 27.864 31.7907 27.864C33.1507 27.864 34.3428 28.2 35.3667 28.872C36.4067 29.528 37.2148 30.448 37.7908 31.632L35.0068 33.24C34.3348 31.8 33.2627 31.08 31.7907 31.08C31.1027 31.08 30.5588 31.24 30.1588 31.56C29.7747 31.864 29.5828 32.264 29.5828 32.7599C29.5828 33.2879 29.7987 33.72 30.2307 34.056C30.6787 34.376 31.5267 34.728 32.7747 35.112C33.2868 35.272 33.6707 35.3999 33.9268 35.4959C34.1987 35.576 34.5588 35.712 35.0068 35.904C35.4708 36.08 35.8228 36.248 36.0628 36.408C36.3188 36.568 36.6068 36.784 36.9268 37.056C37.2467 37.328 37.4868 37.6079 37.6468 37.896C37.8228 38.1839 37.9668 38.5359 38.0788 38.952C38.2067 39.352 38.2708 39.792 38.2708 40.2719C38.2708 41.824 37.7028 43.056 36.5667 43.9679C35.4468 44.8799 33.9827 45.336 32.1748 45.336Z" fill="#1A1E25"></path> <path d="M46.1313 45.336C44.4673 45.336 43.0673 44.9679 41.9313 44.2319C40.7953 43.4799 39.9953 42.464 39.5313 41.184L42.3633 39.528C43.0193 41.24 44.3073 42.096 46.2273 42.096C47.1553 42.096 47.8353 41.9279 48.2673 41.5919C48.6993 41.256 48.9153 40.832 48.9153 40.32C48.9153 39.728 48.6513 39.2719 48.1233 38.952C47.5953 38.616 46.6513 38.2559 45.2913 37.8719C44.5393 37.6479 43.8993 37.424 43.3713 37.2C42.8593 36.976 42.3393 36.68 41.8113 36.312C41.2993 35.928 40.9073 35.4479 40.6353 34.8719C40.3633 34.2959 40.2273 33.624 40.2273 32.8559C40.2273 31.3359 40.7633 30.128 41.8353 29.232C42.9233 28.32 44.2273 27.864 45.7473 27.864C47.1073 27.864 48.2993 28.2 49.3233 28.872C50.3633 29.528 51.1713 30.448 51.7473 31.632L48.9633 33.24C48.2913 31.8 47.2193 31.08 45.7473 31.08C45.0593 31.08 44.5153 31.24 44.1153 31.56C43.7313 31.864 43.5393 32.264 43.5393 32.7599C43.5393 33.2879 43.7553 33.72 44.1873 34.056C44.6353 34.376 45.4833 34.728 46.7313 35.112C47.2433 35.272 47.6273 35.3999 47.8833 35.4959C48.1553 35.576 48.5153 35.712 48.9633 35.904C49.4273 36.08 49.7793 36.248 50.0193 36.408C50.2753 36.568 50.5633 36.784 50.8833 37.056C51.2033 37.328 51.4433 37.6079 51.6033 37.896C51.7793 38.1839 51.9233 38.5359 52.0353 38.952C52.1633 39.352 52.2273 39.792 52.2273 40.2719C52.2273 41.824 51.6593 43.056 50.5233 43.9679C49.4033 44.8799 47.9393 45.336 46.1313 45.336Z" fill="#1A1E25"></path> </svg> 